# xmcd
#
# Track frame offsets:
#	150
#	14720
#	30559
#	45575
#	62534
#	77995
#	94312
#	113634
#	126550
#	139311
#	155870
#	170061
#	181885
#	202441
#	219769
#
# Disc length: 3229 seconds
#
# Revision: 2
# Processed by: cddbd v1.5.2PL0 Copyright (c) Steve Scherf et al.
# Submitted via: audiograbber 1.83.01
#
DISCID=e20c9b0f
DTITLE=Various Artist - CBP60159
DYEAR=1900
DGENRE=
TTITLE0=Aaron Tippin - That's As Close As I'll Get To Loving You
TTITLE1=Aaron Tippin - Without Your Love
TTITLE2=Aaron Tippin - Everything I Own
TTITLE3=Aaron Tippin - Whole Lotta Love On The Line
TTITLE4=David Lee Murphy - Party Crowd
TTITLE5=Lee Roy Parnell - When A Woman Loves A Man
TTITLE6=Doug Supernaw - Red and The Rio Grande
TTITLE7=Doug Supernaw - What'll You Do About Me
TTITLE8=Lee Roy Parnell - Little Bit Of You
TTITLE9=Lee Roy Parnell - Power Of Love
TTITLE10=Lee Roy Parnell - Family Tree
TTITLE11=Toby Keith - You Ain't Much Fun
TTITLE12=Toby Keith - Upstairs
TTITLE13=Toby Keith - Big Ol' Truck
TTITLE14=Toby Keith - Who's That man
EXTD=
EXTT0=
EXTT1=
EXTT2=
EXTT3=
EXTT4=
EXTT5=
EXTT6=
EXTT7=
EXTT8=
EXTT9=
EXTT10=
EXTT11=
EXTT12=
EXTT13=
EXTT14=
PLAYORDER=
